<svg xmlns="http://www.w3.org/2000/svg" width="95.313" height="36.344" viewBox="0 0 95.313 36.344">
  <defs>
    <style>
      .cls-1 {
        fill: #5a9efa;
        fill-rule: evenodd;
      }
    </style>
  </defs>
  <path id="Dosec" class="cls-1" d="M163.816,108.8a19.647,19.647,0,0,0,10.206-2.541,16.455,16.455,0,0,0,6.519-7.15,24.487,24.487,0,0,0,2.235-10.8,17.068,17.068,0,0,0-1.788-8.113,11.986,11.986,0,0,0-5.1-5.1,16.692,16.692,0,0,0-7.86-1.742,23.942,23.942,0,0,0-6.668,1,18.593,18.593,0,0,0-6.034,2.93,3.18,3.18,0,0,0-1.006,1.168,3.815,3.815,0,0,0-.3,1.619,2.688,2.688,0,0,0,.372,1.455,1.138,1.138,0,0,0,1.006.594,1.687,1.687,0,0,0,1.043-.369,20.834,20.834,0,0,1,5.271-2.7,17.754,17.754,0,0,1,5.9-1.024,9.4,9.4,0,0,1,7.152,2.663q2.534,2.664,2.533,7.539,0,7.252-3.222,11.6t-9.741,4.343a23.63,23.63,0,0,1-2.533-.122q0.41-5,1.378-10.511a83.146,83.146,0,0,1,1.937-8.789,4.587,4.587,0,0,0,.224-1.311q0-1.392-2.272-1.393a4.421,4.421,0,0,0-2.049.41,2.1,2.1,0,0,0-1.043,1.434q-1.379,5.532-2.347,11.493T156.4,105.4a3.022,3.022,0,0,0,.484,2.13,3.2,3.2,0,0,0,2.049.861,33.1,33.1,0,0,0,4.88.41h0Zm40.453-12.785a2.006,2.006,0,0,0-.521.082,20.728,20.728,0,0,1-4.172.819,9.713,9.713,0,0,0-2.031-5.306,5.571,5.571,0,0,0-4.563-2.151,7.024,7.024,0,0,0-4.209,1.373,9.148,9.148,0,0,0-2.98,3.811,13.564,13.564,0,0,0-1.08,5.552,10.971,10.971,0,0,0,.819,4.261,7.412,7.412,0,0,0,2.4,3.155,6.173,6.173,0,0,0,3.818,1.189,6.549,6.549,0,0,0,4.731-2.07,10.536,10.536,0,0,0,2.794-5.511,15.612,15.612,0,0,0,4.917-.983q1.078-.369,1.08-2.336a3.086,3.086,0,0,0-.261-1.352,0.814,0.814,0,0,0-.745-0.533h0Zm-12.218,8.441a2.271,2.271,0,0,1-1.881-1.188,6.152,6.152,0,0,1-.8-3.442,8.392,8.392,0,0,1,.987-4.446,2.883,2.883,0,0,1,2.477-1.578h0.187a7.744,7.744,0,0,0-.112,1.311,7.238,7.238,0,0,0,.614,2.95,5.541,5.541,0,0,0,1.77,2.254,6.222,6.222,0,0,1-1.174,3.073,2.606,2.606,0,0,1-2.067,1.065h0ZM209,109.7a5.009,5.009,0,0,0,3.539-1.393,9.328,9.328,0,0,0,4.191-1,11.773,11.773,0,0,0,3.557-3.462,4.246,4.246,0,0,0,.708-2.541,2.741,2.741,0,0,0-.28-1.352,0.85,0.85,0,0,0-.763-0.492,1.273,1.273,0,0,0-1.006.574q-2.458,3.36-4.284,4.138,0.075-.736.075-1.147a5.745,5.745,0,0,0-.615-2.643,26.512,26.512,0,0,0-1.806-2.93A15.363,15.363,0,0,1,211.1,95.6a2.922,2.922,0,0,1-.391-1.352,6.289,6.289,0,0,1,.67-2.5,6.2,6.2,0,0,0,.41-1.065,3.3,3.3,0,0,0,.149-0.779,0.686,0.686,0,0,0-.41-0.656,3.582,3.582,0,0,0-1.452-.2,2.836,2.836,0,0,0-2.943,1.8q-0.82,2.131-1.676,4.118t-1.49,3.175a53.2,53.2,0,0,1-3.092,4.589l-0.484.656a2.477,2.477,0,0,0-.522,1.516,1.826,1.826,0,0,0,.373,1.168,1.177,1.177,0,0,0,.968.471,1.924,1.924,0,0,0,1.416-.738,29.139,29.139,0,0,0,2.477-3.032,27.288,27.288,0,0,0,2.291-4.015q0.52,0.656,1.117,1.536a10.366,10.366,0,0,1,.987,1.824,5.709,5.709,0,0,1,.429,2.007q-0.336-.039-0.988-0.143a7.469,7.469,0,0,0-1.136-.1,2.681,2.681,0,0,0-2.086.778,2.649,2.649,0,0,0-.707,1.844,3,3,0,0,0,1.024,2.213A4.113,4.113,0,0,0,209,109.7h0ZM234.59,99.453a1.273,1.273,0,0,0-1.006.574,12.962,12.962,0,0,1-3.707,3.38,7.611,7.611,0,0,1-3.818,1.291,3.568,3.568,0,0,1-3.538-1.885q4.4-1.188,6.239-3.216a6.971,6.971,0,0,0,1.844-4.855,5.432,5.432,0,0,0-1.3-3.831,4.487,4.487,0,0,0-3.464-1.414,7.065,7.065,0,0,0-4.34,1.434,9.543,9.543,0,0,0-3,3.872,12.837,12.837,0,0,0-1.081,5.265,9.045,9.045,0,0,0,2.161,6.392,7.86,7.86,0,0,0,6.072,2.336,10.045,10.045,0,0,0,5.382-1.557,13.941,13.941,0,0,0,3.893-3.4,4.033,4.033,0,0,0,.708-2.541,2.753,2.753,0,0,0-.28-1.352,0.85,0.85,0,0,0-.763-0.492h0ZM225.2,93.512a1.307,1.307,0,0,1,1.061.471,1.893,1.893,0,0,1,.391,1.25,3.5,3.5,0,0,1-1.266,2.663,8.132,8.132,0,0,1-3.464,1.721V99.535a8.874,8.874,0,0,1,.949-4.261,2.74,2.74,0,0,1,2.329-1.762h0ZM239.73,108.8a10.075,10.075,0,0,0,4.712-1.291,12.365,12.365,0,0,0,4.19-3.667,4.246,4.246,0,0,0,.708-2.541,2.753,2.753,0,0,0-.279-1.352,0.85,0.85,0,0,0-.764-0.492,1.275,1.275,0,0,0-1.006.574,13.909,13.909,0,0,1-3.482,3.38,6.22,6.22,0,0,1-3.3,1.127q-3.764,0-3.762-4.753a10.566,10.566,0,0,1,.447-3.155,6.139,6.139,0,0,1,1.192-2.274,2.142,2.142,0,0,1,1.6-.84,0.856,0.856,0,0,1,.69.287,1.24,1.24,0,0,1,.242.82,3.977,3.977,0,0,1-.187,1.147q-0.038.164-.111,0.533a3.337,3.337,0,0,0-.075.656,1.278,1.278,0,0,0,.429,1.024,1.679,1.679,0,0,0,1.136.369,2.048,2.048,0,0,0,1.806-1.188,5.706,5.706,0,0,0,.689-2.909,5.084,5.084,0,0,0-1.136-3.421,3.96,3.96,0,0,0-3.185-1.332,6.766,6.766,0,0,0-3.985,1.352,9.735,9.735,0,0,0-3.092,3.852,13.373,13.373,0,0,0-1.192,5.819,8.675,8.675,0,0,0,2.03,6,7.22,7.22,0,0,0,5.681,2.274h0Z" transform="translate(-154.031 -73.344)"/>
</svg>
